# xmcd
#
# Track frame offsets:
#	150
#	5827
#	13030
#	17237
#	23022
#	31885
#	38630
#	44257
#	49902
#	55972
#	63327
#	68710
#	73562
#	78452
#	87095
#	92895
#	99947
#	103645
#	107412
#	116967
#	124165
#	135075
#	138697
#	142780
#	148685
#	158497
#	163045
#	169180
#	175655
#
# Disc length: 2449 seconds
#
# Revision: 1
# Processed by: cddbd v1.5.1PL0 Copyright (c) Steve Scherf et al.
# Submitted via: CDex 1.50Beta5
#
DISCID=7e098f1d
DTITLE=TVサントラ - 大岡越前オリジナルサウンドトラック 暗闇編
DYEAR=2002
DGENRE=Soundtrack
TTITLE0=「大岡越前」オープニングテーマ 初代
TTITLE1=「大岡越前」テーマ Trb.&Vo.ver.
TTITLE2=「大岡越前」サスペンスI
TTITLE3=「大岡越前」サスペンスII
TTITLE4=「大岡越前」テーマ Horg.ver.
TTITLE5=「大岡越前」悲しみ口笛
TTITLE6=「大岡越前」サスペンスIII
TTITLE7=「大岡越前」ざわめき
TTITLE8=「大岡越前」サスペンスIV
TTITLE9=「大岡越前」尾行I
TTITLE10=「大岡越前」やさしく、愛 Vn.ver
TTITLE11=「大岡越前」一人さみしくものしずかに
TTITLE12=「大岡越前」なぐさめ
TTITLE13=「大岡越前」テーマ Celst.ver.
TTITLE14=「大岡越前」サスペンスV
TTITLE15=「大岡越前」忍びよる恐怖
TTITLE16=「大岡越前」走る
TTITLE17=「大岡越前」不審な行動
TTITLE18=「大岡越前」テーマ Harpsicord ver.
TTITLE19=「大岡越前」平穏
TTITLE20=「大岡越前」テーマ 口笛ver.
TTITLE21=「大岡越前」狂乱
TTITLE22=「大岡越前」サスペンスVI
TTITLE23=「大岡越前」苦悩II
TTITLE24=「大岡越前」テーマ Vn.&Fl.ver.
TTITLE25=「大岡越前」暖かく一家団らん
TTITLE26=「大岡越前」テーマ Scat.ver.
TTITLE27=「大岡越前」テーマ S.sax.ver.
TTITLE28=「大岡越前」テーマ Rock.ver.
EXTD=
EXTT0=
EXTT1=
EXTT2=
EXTT3=
EXTT4=
EXTT5=
EXTT6=
EXTT7=
EXTT8=
EXTT9=
EXTT10=
EXTT11=
EXTT12=
EXTT13=
EXTT14=
EXTT15=
EXTT16=
EXTT17=
EXTT18=
EXTT19=
EXTT20=
EXTT21=
EXTT22=
EXTT23=
EXTT24=
EXTT25=
EXTT26=
EXTT27=
EXTT28=
PLAYORDER=
